<?xml version="1.0" encoding="utf-8"?>
<!-- Generator: Adobe Illustrator 24.2.0, SVG Export Plug-In . SVG Version: 6.00 Build 0)  -->
<svg version="1.1" id="Layer_1" xmlns="http://www.w3.org/2000/svg" xmlns:xlink="http://www.w3.org/1999/xlink" x="0px" y="0px"
	 viewBox="0 0 3054.81 3061.42" style="enable-background:new 0 0 3054.81 3061.42;" xml:space="preserve">
<style type="text/css">
	.st0{fill:#7ACAF1;}
</style>
<g>
	<g>
		<path class="st0" d="M881.86,2418.07c1.4,5.61,6.31,9.12,14.73,10.52c2.1,0.24,3.16,1.4,3.16,3.51c0,1.17-0.59,2.22-1.75,3.16
			c-1.17,0.93-2.69,1.4-4.56,1.4c-3.51,0-8.19-0.24-14.03-0.7c-5.85-0.47-14.15-0.7-24.91-0.7c-8.66,0-16.26,0.29-22.8,0.88
			c-6.55,0.58-10.52,0.99-11.93,1.23c-1.17,0-1.99-0.35-2.46-1.05c-0.47-0.7-0.7-1.52-0.7-2.46c0-0.93,0.18-1.87,0.53-2.81
			c0.35-0.93,0.88-1.4,1.58-1.4c1.63-0.23,3.27-0.7,4.91-1.4c1.63-0.7,3.16-1.63,4.56-2.81c0.7-0.7,1.58-4.44,2.63-11.23
			c1.05-6.78,1.98-15.73,2.81-26.84c0.82-11.11,1.52-23.91,2.1-38.42c0.58-14.5,0.88-29.82,0.88-45.96c0-13.56,0-26.19,0-37.89
			c0-11.69-0.59-21.17-1.75-28.42c-2.11-15.44-7.02-27.3-14.74-35.61c-7.72-8.3-16.72-12.46-27.01-12.46
			c-9.12,0-18.13,2.52-27.01,7.54c-8.89,5.03-16.84,12.4-23.86,22.1c-7.02,9.71-12.69,21.75-17.02,36.14
			c-4.33,14.38-6.49,30.82-6.49,49.29c0,20.35,2.28,38.07,6.84,53.15c4.56,15.09,10.58,27.71,18.07,37.89
			c7.48,10.18,16.08,17.78,25.79,22.8c9.7,5.03,19.82,7.54,30.35,7.54c0.47,0,1.11,0,1.93,0c0.82,0,1.46-0.11,1.93-0.35
			c0.93-0.47,1.52-0.47,1.75,0c0.23,0.47,0.23,1.11,0,1.93c-0.24,0.82-0.53,1.64-0.88,2.46c-0.35,0.82-0.76,1.35-1.23,1.58
			c-2.34,1.64-5.61,3.1-9.82,4.39c-4.21,1.28-10.06,1.93-17.54,1.93c-12.4,0-24.73-2.86-37.01-8.59
			c-12.28-5.73-23.28-13.74-32.98-24.03c-9.71-10.29-17.54-22.75-23.51-37.37c-5.97-14.61-8.95-30.7-8.95-48.24
			c0-25.02,3.62-46.43,10.88-64.2c7.25-17.77,17.13-32.28,29.65-43.5c12.51-11.23,27.01-19.47,43.5-24.73
			c16.49-5.26,34.09-7.89,52.8-7.89c6.78,0,12.98,0.7,18.59,2.1c5.61,1.4,10.53,3.1,14.74,5.09c4.21,1.99,7.66,3.92,10.35,5.79
			c2.69,1.88,4.5,3.28,5.44,4.21c1.87-1.4,5.67-3.1,11.4-5.09c5.73-1.98,12.28-3.86,19.65-5.61c7.37-1.75,15.02-3.27,22.98-4.56
			c7.95-1.28,15.2-1.93,21.75-1.93c17.77,0.47,33.38,3.39,46.84,8.77c13.45,5.38,24.67,12.58,33.68,21.58
			c9,9.01,15.79,19.42,20.35,31.22c4.56,11.81,6.84,24.38,6.84,37.71c0,25.03-3.33,47.31-10,66.84
			c-6.67,19.53-15.61,36.08-26.84,49.64c-11.23,13.57-24.21,23.92-38.94,31.05c-14.73,7.14-30.17,10.7-46.31,10.7
			c-1.4,0-2.34-0.53-2.81-1.58c-0.47-1.05-0.65-2.16-0.53-3.33c0.11-1.17,0.53-2.16,1.23-2.98c0.7-0.82,1.4-1.11,2.11-0.88
			c1.17,0.47,2.1,0.7,2.81,0.7c0.7,0,1.63,0,2.81,0c9.59,0,18.59-3.27,27.01-9.82c8.42-6.55,15.79-15.61,22.1-27.19
			c6.32-11.58,11.28-25.26,14.91-41.05c3.62-15.79,5.44-33.03,5.44-51.75c0-34.85-5.32-61.98-15.96-81.4
			c-10.65-19.41-27.07-29.12-49.29-29.12c-6.79,0-13.1,1.4-18.95,4.21c-5.85,2.81-10.94,6.49-15.26,11.05
			c-4.33,4.56-7.84,9.77-10.53,15.61c-2.69,5.85-4.39,11.81-5.09,17.89c-1.17,8.19-1.88,21.29-2.11,39.29
			c-0.24,18.01-0.47,39.77-0.7,65.26c-0.24,18.71-0.06,35.03,0.53,48.94C879.11,2403.75,880.22,2413.16,881.86,2418.07z"/>
		<path class="st0" d="M1302.52,2450.7c-0.47-3.28-1.35-6.73-2.63-10.35c-1.29-3.63-4.03-5.44-8.24-5.44
			c-3.51,0-8.24,0.17-14.21,0.52c-5.96,0.35-12.34,0.82-19.12,1.4c-6.79,0.58-13.57,1.05-20.35,1.4
			c-6.79,0.35-12.75,0.53-17.89,0.53c-20.35,0-38.36-2.93-54.03-8.77c-15.67-5.84-28.89-13.91-39.64-24.21
			c-10.76-10.29-18.95-22.63-24.56-37.01c-5.61-14.38-8.42-30.23-8.42-47.54c0-24.09,3.86-44.85,11.58-62.27
			c7.72-17.42,18.12-31.75,31.22-42.98c13.1-11.23,28.18-19.47,45.26-24.73c17.07-5.26,34.96-7.89,53.68-7.89
			c5.61,0,11.69,0.18,18.24,0.53c6.55,0.35,12.75,0.82,18.59,1.4c5.84,0.59,10.99,1.17,15.44,1.75c4.44,0.59,7.6,1.11,9.47,1.58
			c1.17,0.24,2.34-1.75,3.51-5.96c1.17-4.21,2.63-8.83,4.39-13.86c1.75-5.03,3.8-9.7,6.14-14.03c2.34-4.33,5.14-6.49,8.42-6.49
			c3.97,1.17,6.78,2.46,8.42,3.86c1.63,1.4,0.82,3.28-2.46,5.61c-5.38,4.21-9.88,9.88-13.51,17.02c-3.63,7.14-6.84,15.73-9.65,25.79
			c-1.17,3.04-2.4,7.37-3.68,12.98c-1.29,5.61-2.4,11.93-3.33,18.95c-0.47,1.87-1.93,2.75-4.39,2.63c-2.46-0.11-4.16-1.81-5.09-5.09
			c-1.17-3.27-3.39-6.96-6.67-11.05c-3.28-4.09-7.6-8.01-12.98-11.75c-5.38-3.74-11.81-6.84-19.3-9.3
			c-7.49-2.46-15.91-3.68-25.26-3.68c-10.52,0-20.12,2.75-28.77,8.24c-8.66,5.5-16.14,12.75-22.45,21.75
			c-6.31,9.01-11.35,19.3-15.09,30.87c-3.74,11.58-5.96,23.57-6.67,35.96c1.87,0.47,5.79,0.94,11.75,1.4
			c5.96,0.47,12.46,0.82,19.47,1.05c7.02,0.24,13.8,0.41,20.35,0.53c6.55,0.12,11.46,0.06,14.74-0.18c7.48,0,14.85-0.35,22.1-1.05
			c7.25-0.7,13.91-1.69,20-2.98c6.08-1.28,11.34-2.75,15.79-4.39c4.44-1.63,7.6-3.39,9.47-5.26c0.93-1.4,2.28-1.98,4.03-1.75
			c1.75,0.24,2.98,0.82,3.68,1.75c-0.47,2.11-1.29,4.86-2.46,8.25c-1.17,3.39-2.46,7.31-3.86,11.75c-1.4,4.45-2.58,9.36-3.51,14.73
			c-0.94,5.38-1.4,11-1.4,16.84c-0.47,2.34-1.81,3.04-4.03,2.1c-2.23-0.93-3.57-2.22-4.03-3.86c-0.94-3.74-3.22-6.67-6.84-8.77
			c-3.63-2.11-8.31-3.68-14.03-4.74c-5.73-1.05-12.22-1.69-19.47-1.93c-7.25-0.23-15.09-0.35-23.51-0.35
			c-15.91,0-28.71,0.12-38.42,0.35c-9.71,0.23-16.55,0.47-20.52,0.7c0,7.02,0.53,14.62,1.58,22.8c1.05,8.19,2.86,16.37,5.44,24.56
			c2.57,8.19,5.97,16.08,10.18,23.68c4.21,7.6,9.47,14.38,15.79,20.35c6.31,5.96,13.86,10.7,22.63,14.21
			c8.77,3.51,18.88,5.26,30.35,5.26c10.99,0,20.7-1.34,29.12-4.03c8.42-2.69,15.55-5.96,21.4-9.82c5.84-3.86,10.58-7.89,14.21-12.1
			c3.62-4.21,6.14-7.95,7.54-11.23c0.7-0.7,1.17-1.05,1.4-1.05c0.93,0,2.04,0.35,3.33,1.05c1.28,0.7,1.93,1.64,1.93,2.8
			c-0.7,2.58-1.4,5.38-2.1,8.42c-1.17,5.85-1.76,12.52-1.76,20c0,6.09,0.23,12.05,0.7,17.89c0.47,5.84,1.28,10.76,2.46,14.74
			c-2.34,0.93-4.39,1.34-6.14,1.23C1304.1,2453.91,1302.99,2452.81,1302.52,2450.7z"/>
		<path class="st0" d="M1556.36,2379.63c-14.72-30.35-57.61-41.08-65.09-45.06c-3.51-1.63-7.49-2.86-11.93-3.68
			c-4.45-0.82-8.72-1.4-12.81-1.76c-4.1-0.35-7.89-0.53-11.4-0.53c-3.51,0-6.2,0-8.07,0c-1.4,0-2.58,0.06-3.51,0.18
			c-0.94,0.12-1.64,0.18-2.11,0.18v29.47c0,11.93,0.23,23.57,0.7,34.91c0.47,11.35,1.75,20.52,3.86,27.54
			c4.21,2.57,8.95,4.15,14.21,4.74c5.26,0.59,10.23,1,14.91,1.23c4.68,0.24,8.6,0.7,11.75,1.4c3.16,0.7,4.74,2.23,4.74,4.56
			c0,1.17-0.59,2.17-1.76,2.98c-1.17,0.82-3.04,1.23-5.61,1.23c-6.79,0.23-16.02-0.06-27.72-0.88c-11.7-0.82-25.03-1.23-40-1.23
			c-19.18,0-33.63,0.64-43.33,1.93c-9.71,1.28-15.5,1.93-17.37,1.93c-1.64,0-3.04-0.41-4.21-1.23c-1.17-0.82-1.76-1.93-1.76-3.33
			c0-3.04,1.4-4.67,4.21-4.91c2.81-0.23,8.07-0.93,15.79-2.11c5.14-0.47,9.35-1.11,12.63-1.93c3.27-0.82,6.55-1.81,9.82-2.98
			c1.4-5.14,2.57-10.4,3.51-15.79c0.93-5.38,1.75-12.1,2.46-20.17c0.7-8.07,1.23-18.12,1.58-30.17c0.35-12.04,0.53-27.54,0.53-46.49
			c0-17.31-0.12-31.98-0.35-44.03c-0.23-12.04-0.65-22.1-1.23-30.17c-0.59-8.07-1.17-14.44-1.76-19.12
			c-0.59-4.68-1.23-8.3-1.93-10.88c-3.04-2.1-7.02-3.45-11.93-4.03c-4.91-0.58-9.71-1.05-14.38-1.4c-4.68-0.35-8.72-0.88-12.1-1.58
			c-3.39-0.7-5.09-2.34-5.09-4.91c0-3.04,1.87-4.56,5.61-4.56c4.21,0,11.4,0.53,21.58,1.58c10.17,1.05,22.63,1.58,37.36,1.58
			c2.34,0,4.21-0.35,5.61-1.05c2.34-1.17,6.08-2.81,11.23-4.91c5.14-2.1,11.11-4.21,17.89-6.32c6.78-2.1,13.97-3.97,21.58-5.61
			c7.6-1.63,15.03-2.46,22.28-2.46c11.69,0,22.8,1.35,33.33,4.03c10.53,2.69,19.7,6.73,27.54,12.1c7.83,5.38,14.09,12.05,18.77,20
			c4.68,7.95,7.02,17.19,7.02,27.72c0,10.29-2.4,19.82-7.19,28.59c-4.8,8.77-10.82,16.79-18.07,24.03
			c-7.25,7.25-15.21,13.51-23.86,18.77c-8.66,5.26-16.72,9.42-24.21,12.46c9.59,0,18.65,1,27.19,2.98
			c8.54,1.99,16.25,4.8,23.16,8.42c6.9,3.63,12.63,8.01,17.19,13.16c4.56,5.15,9.06,12.04,13.08,20.56s13.64,40.12,15.18,66.78
			c3.15,54.64,42.16,110.68,49.74,119.54c-16.69-13.91-95.85-49.66-89.07-91.04C1567.57,2441.61,1569.42,2406.55,1556.36,2379.63z
			 M1447.41,2210.73c-1.17,4.45-2.11,10.65-2.81,18.59c-0.7,7.95-1.29,16.67-1.76,26.14c-0.47,9.47-0.82,19.3-1.05,29.47
			c-0.24,10.17-0.35,19.82-0.35,28.94c2.34,1.88,6.84,2.93,13.51,3.16c6.67,0.24,13.86,0.35,21.58,0.35
			c6.78,0,12.46-0.58,17.02-1.75c4.56-1.17,8.83-3.27,12.81-6.32c2.34-1.63,4.97-4.32,7.89-8.07c2.92-3.74,5.73-8.18,8.42-13.33
			c2.69-5.14,4.97-10.93,6.84-17.37c1.87-6.43,2.81-13.27,2.81-20.52c0-10.53-1.17-19.94-3.51-28.24c-2.34-8.3-5.5-15.44-9.47-21.4
			c-3.98-5.96-8.66-10.53-14.03-13.68c-5.38-3.16-11.11-4.74-17.19-4.74c-3.28,0-6.96,0.65-11.05,1.93
			c-4.09,1.29-8.13,2.98-12.1,5.09c-3.98,2.1-7.49,4.51-10.52,7.19c-3.04,2.69-5.03,5.56-5.97,8.6L1447.41,2210.73z"/>
		<path class="st0" d="M1659.68,2194.59c-6.09-0.23-9.88-0.88-11.4-1.93c-1.52-1.05-2.28-2.16-2.28-3.33c0-1.63,0.23-3.1,0.7-4.39
			c0.47-1.28,1.75-2.04,3.86-2.28c2.57,0.24,6.49,0.65,11.75,1.23c5.26,0.59,12.33,1.11,21.23,1.58h21.05
			c10.29-0.23,19.88-0.82,28.77-1.75c8.89-0.93,16.84-1.98,23.86-3.16c7.02-1.17,12.86-2.34,17.54-3.51
			c4.68-1.17,7.95-2.22,9.82-3.16h0.35c0.23,0,0.41-0.06,0.53-0.18c0.12-0.12,0.29-0.18,0.53-0.18c2.34,0,3.51,2.46,3.51,7.37
			c0,2.1-2.17,3.86-6.49,5.26c-4.33,1.4-9.3,2.63-14.91,3.68c-5.61,1.05-11.11,2.05-16.49,2.98c-5.38,0.94-9.01,1.99-10.88,3.16
			c-1.4,2.34-2.63,8.72-3.68,19.12c-1.05,10.41-1.88,22.69-2.46,36.84c-0.59,14.15-1.05,29.18-1.4,45.08
			c-0.35,15.91-0.53,30.52-0.53,43.86c0,21.52,0.29,38.94,0.88,52.27c0.58,13.33,1.69,20.82,3.33,22.45
			c0.7,0.24,1.98,0.35,3.86,0.35c2.1,0,4.62-0.18,7.54-0.53c2.92-0.35,5.9-0.7,8.95-1.05c3.04-0.35,6.02-0.76,8.95-1.23
			c2.92-0.47,5.44-0.82,7.54-1.05c5.38-0.7,11.17-1.58,17.37-2.63c6.19-1.05,12.33-2.33,18.42-3.86c6.08-1.52,11.75-3.45,17.02-5.79
			c5.26-2.34,9.76-5.26,13.51-8.77c0.23-0.47,0.41-0.64,0.53-0.52c0.11,0.12,0.29,0.06,0.53-0.18c0.93-0.93,1.98-1.28,3.16-1.05
			c1.17,0.24,2.16,0.88,2.98,1.93c0.82,1.05,1.34,2.22,1.58,3.51c0.23,1.29-0.12,2.28-1.05,2.98c-2.11,1.64-4.15,4.09-6.14,7.37
			c-1.99,3.28-3.81,6.79-5.44,10.53c-1.64,3.74-3.04,7.31-4.21,10.7c-1.17,3.39-1.88,5.91-2.11,7.54c1.87,1.17,3.91,2.81,6.14,4.91
			c2.22,2.11,3.33,4.68,3.33,7.72c0,0.93-0.3,2.16-0.88,3.68c-0.59,1.52-1.81,2.28-3.68,2.28c-0.47,0-1.29-0.12-2.46-0.35
			c-1.17-0.24-1.75-1.29-1.75-3.16c0-2.11,0.93-3.63,2.81-4.56c-0.94-0.47-2.23-1.29-3.86-2.46c-1.64-1.17-3.28-1.99-4.91-2.46
			c-4.21-0.7-8.54-1.4-12.98-2.11c-4.45-0.7-9.3-1.23-14.56-1.58c-5.26-0.35-11.17-0.64-17.72-0.88c-6.55-0.23-13.92-0.35-22.1-0.35
			c-18.95,0-35.03,0.52-48.24,1.58c-13.22,1.05-24.38,2.16-33.51,3.33c-9.12,1.17-16.61,2.28-22.45,3.33
			c-5.85,1.05-10.65,1.58-14.38,1.58c-3.27,0-4.91-1.4-4.91-4.21c0-1.64,0.35-3.39,1.05-5.26c0.7-1.87,2.34-2.69,4.91-2.46
			c2.81,0.24,6.49,0.12,11.05-0.35c4.56-0.47,9.12-1.17,13.68-2.11c4.56-0.93,8.54-1.93,11.93-2.98c3.39-1.05,5.44-2.04,6.14-2.98
			c0.93-1.87,1.93-6.31,2.98-13.33c1.05-7.02,1.93-15.84,2.63-26.49c0.7-10.64,1.28-22.74,1.75-36.31
			c0.47-13.56,0.7-27.95,0.7-43.15c0-20.58-0.18-37.54-0.53-50.87c-0.35-13.33-0.76-23.97-1.23-31.93
			c-0.47-7.95-1.05-13.8-1.75-17.54c-0.7-3.74-1.4-6.55-2.1-8.42L1659.68,2194.59z"/>
		<path class="st0" d="M1941.05,2435.26c-4.21,0-8.89,0.06-14.03,0.17c-5.15,0.11-10.17,0.23-15.09,0.35
			c-4.91,0.12-9.53,0.35-13.86,0.7c-4.33,0.35-7.66,0.64-10,0.88l-5.61,0.7c-1.17,0-2.17-0.65-2.98-1.93
			c-0.82-1.28-1.23-2.51-1.23-3.68c0-0.93,0.47-1.93,1.4-2.98c0.93-1.05,2.22-1.58,3.86-1.58c9.82,0,17.66-0.58,23.51-1.75
			c5.84-1.17,9.35-2.69,10.52-4.56c1.4-2.81,2.86-9.06,4.39-18.77c1.52-9.7,2.86-21.05,4.03-34.03c1.17-12.98,2.11-26.6,2.81-40.87
			c0.7-14.26,1.05-27.48,1.05-39.65c0-13.33-0.06-24.5-0.18-33.5c-0.12-9-0.24-16.43-0.35-22.28c-0.12-5.84-0.24-10.35-0.35-13.51
			c-0.12-3.16-0.18-5.44-0.18-6.84c-0.24-7.48-1.29-12.45-3.16-14.91c-1.88-2.46-5.26-3.91-10.17-4.39
			c-3.51-0.47-7.6-0.58-12.28-0.35c-4.68,0.24-8.07,0.24-10.17,0c-1.64-0.23-3.04-0.53-4.21-0.88c-1.17-0.35-1.75-1.58-1.75-3.68
			c0-2.34,0.58-3.91,1.75-4.74c1.17-0.82,2.46-1.23,3.86-1.23c1.87,0,7.89,0.41,18.07,1.23c10.17,0.82,24.73,1.23,43.68,1.23
			c12.39,0,22.98-0.29,31.75-0.88c8.77-0.58,14.79-1.11,18.07-1.58c1.63,0,3.21,0.18,4.74,0.53c1.52,0.35,2.28,1.46,2.28,3.33
			c0,3.98-2.69,6.2-8.07,6.67c-1.87,0-3.98,0.12-6.31,0.35c-2.34,0.24-4.62,0.47-6.84,0.7c-2.23,0.24-4.27,0.59-6.14,1.05
			c-1.88,0.47-3.28,0.82-4.21,1.05c-1.17,0.47-2.28,4.74-3.33,12.81c-1.05,8.07-1.99,18.07-2.81,30
			c-0.82,11.93-1.58,24.79-2.28,38.59c-0.7,13.8-1.17,26.55-1.4,38.24c-0.24,8.89-0.41,19.24-0.53,31.05
			c-0.12,11.81,0,23.16,0.35,34.03c0.35,10.88,0.88,20.29,1.58,28.24c0.7,7.96,1.75,12.52,3.16,13.68c0.93,0.7,2.69,1.35,5.26,1.93
			c2.57,0.59,5.61,1.17,9.12,1.75c3.51,0.59,7.07,1,10.7,1.23c3.62,0.24,6.96,0.35,10,0.35c2.57,0,4.21,0.24,4.91,0.7
			c0.7,0.47,1.05,1.64,1.05,3.51c0,2.1-0.88,3.62-2.63,4.56c-1.75,0.93-3.57,1.4-5.44,1.4c-1.4,0-3.51-0.12-6.31-0.35
			c-2.81-0.23-6.67-0.52-11.58-0.88c-4.91-0.35-11.11-0.65-18.59-0.88c-7.49-0.24-16.73-0.35-27.72-0.35H1941.05z"/>
		<path class="st0" d="M2062.78,2427.9c2.57,0,5.26-0.06,8.07-0.17c2.81-0.12,5.03-0.41,6.67-0.88c1.63-0.47,3.04-1.34,4.21-2.63
			c1.17-1.28,2.22-3.62,3.16-7.02c0.93-3.39,1.75-8.18,2.46-14.38c0.7-6.2,1.23-14.44,1.58-24.73c0.35-10.29,0.64-23.04,0.88-38.24
			c0.23-15.2,0.35-33.56,0.35-55.08c0-17.54-0.24-32.16-0.7-43.86c-0.47-11.69-1.17-21.1-2.1-28.24
			c-0.94-7.13-2.17-12.22-3.68-15.26c-1.52-3.04-3.45-4.56-5.79-4.56c-1.17,0-2.75,0.06-4.74,0.17c-1.99,0.12-4.03,0.18-6.14,0.18
			c-2.1,0-4.03,0.06-5.79,0.18c-1.75,0.12-2.87,0.18-3.33,0.18c-0.47,0-0.82-0.47-1.05-1.4c-0.24-0.93-0.35-1.87-0.35-2.81
			c0-0.93,0.11-2.1,0.35-3.51c0.23-1.4,1.05-2.1,2.46-2.1h31.22c10.05,0,18.36-0.23,24.91-0.7c6.55-0.47,12.75-1.28,18.59-2.46
			c3.51-0.7,5.03,0.47,4.56,3.51c-0.24,1.4-0.47,3.74-0.7,7.02c-0.24,3.28-0.53,6.79-0.88,10.53c-0.35,3.74-0.65,7.31-0.88,10.7
			c-0.24,3.39-0.35,5.91-0.35,7.54c2.81-3.27,7.42-7.25,13.86-11.93c6.43-4.68,13.97-9.12,22.63-13.33
			c8.65-4.21,18.12-7.83,28.42-10.88c10.29-3.04,20.7-4.56,31.23-4.56c14.03,0,27.01,1.81,38.94,5.44
			c11.93,3.63,22.16,9.01,30.7,16.14c8.53,7.14,15.2,16.14,20,27.01c4.79,10.88,7.19,23.68,7.19,38.42c0,9.59-0.94,19.47-2.81,29.65
			c-1.88,10.18-4.21,20.3-7.02,30.35c-2.81,10.06-5.85,19.82-9.12,29.29c-3.28,9.47-6.32,18.24-9.12,26.31
			c-2.81,8.07-5.15,15.26-7.02,21.58c-1.87,6.31-2.81,11.22-2.81,14.73c0,2.58,1.23,4.62,3.68,6.14c2.46,1.53,6.72,2.28,12.81,2.28
			c3.27,0,6.02-0.12,8.24-0.35c2.22-0.23,4.15-0.93,5.79-2.11c0.93-0.47,1.87,0,2.81,1.4c0.47,0.7,0.7,1.53,0.7,2.46
			c0,1.17-0.65,2.81-1.93,4.91c-1.29,2.11-2.75,3.16-4.39,3.16c-1.88,0-5.96,0-12.28,0c-6.31,0-13.16,0.06-20.52,0.18
			c-7.37,0.11-14.62,0.17-21.75,0.17c-7.14,0-12.58,0-16.31,0c-3.51,0-5.26-1.17-5.26-3.51c0-1.4,0.12-2.28,0.35-2.63
			c0.23-0.35,0.64-0.58,1.23-0.7c0.58-0.11,1.28-0.35,2.11-0.7c0.82-0.35,1.93-1.23,3.33-2.63c2.57-3.98,5.26-10.58,8.07-19.82
			c2.81-9.24,5.32-20.05,7.54-32.45c2.22-12.39,4.09-25.84,5.61-40.35c1.52-14.5,2.28-29,2.28-43.5c0-15.2-1.75-28.53-5.26-40
			c-3.51-11.46-8.3-21.05-14.38-28.77c-6.09-7.72-13.1-13.51-21.05-17.37c-7.95-3.86-16.37-5.79-25.26-5.79
			c-7.72,0-15.61,1.46-23.68,4.39c-8.07,2.93-15.5,6.9-22.28,11.93c-6.79,5.03-12.69,10.88-17.72,17.54
			c-5.03,6.67-8.24,13.63-9.65,20.88c-0.7,3.28-1.29,9.01-1.75,17.19c-0.47,8.19-0.82,17.66-1.05,28.42
			c-0.24,10.76-0.41,22.1-0.53,34.03c-0.12,11.93-0.18,23.28-0.18,34.03c0,6.79,0.11,13.28,0.35,19.47
			c0.23,6.2,0.58,11.81,1.05,16.84c0.47,5.03,0.93,9.3,1.4,12.81c0.47,3.51,0.93,5.73,1.4,6.67c0.93,2.11,1.98,3.57,3.16,4.39
			c1.17,0.82,4.44,1.23,9.82,1.23c2.33,0,4.15-0.11,5.44-0.35c1.28-0.23,2.86-0.35,4.74-0.35c1.63,0,2.69,0.65,3.16,1.93
			c0.47,1.29,0.7,2.4,0.7,3.33c0,0.47-0.41,1.17-1.23,2.11c-0.82,0.93-1.81,1.4-2.98,1.4c-1.4,0-3.81-0.06-7.19-0.18
			c-3.39-0.12-7.19-0.17-11.4-0.17c-4.21,0-8.37-0.06-12.46-0.18c-4.1-0.12-7.31-0.17-9.65-0.17c-6.09,0-12.34,0.06-18.77,0.17
			c-6.44,0.11-12.46,0.23-18.07,0.35c-5.61,0.12-10.59,0.29-14.91,0.53c-4.33,0.23-7.19,0.47-8.6,0.7c-1.4,0-2.11-0.94-2.11-2.81
			c0-1.17,0.41-2.51,1.23-4.03c0.82-1.52,1.81-2.28,2.98-2.28H2062.78z"/>
	</g>
	<g>
		<path class="st0" d="M807.87,2678.8c-2.13,2.32-5.43,5.52-9.88,9.59c-4.46,4.07-9.83,8.14-16.12,12.2
			c-6.3,4.07-13.32,7.55-21.06,10.46c-7.75,2.91-15.98,4.36-24.7,4.36c-7.94,0-15.69-1.21-23.24-3.63
			c-7.55-2.42-14.34-6.1-20.34-11.04c-6.01-4.94-10.8-11.23-14.38-18.88c-3.59-7.65-5.38-16.8-5.38-27.46
			c0-8.72,0.58-16.22,1.74-22.52c1.16-6.29,2.71-11.81,4.65-16.56c1.93-4.74,4.11-8.81,6.54-12.2c2.42-3.39,4.89-6.44,7.41-9.15
			c3.1-3.49,6.87-6.78,11.33-9.88c4.45-3.1,9.25-5.91,14.38-8.43c5.13-2.51,10.55-4.5,16.27-5.96c5.71-1.45,11.48-2.18,17.29-2.18
			c10.46,0,18.64,1.74,24.55,5.23c5.91,3.49,8.86,8.33,8.86,14.53c0,3.88-1.16,7.46-3.49,10.75c1.93-0.58,4.4-1.55,7.41-2.91
			c3-1.35,6.05-2.76,9.15-4.21c3.1-1.45,5.86-2.76,8.28-3.92c2.42-1.16,4.02-2.03,4.79-2.61c0.39-0.39,0.82-0.53,1.31-0.44
			c0.48,0.1,0.73,0.44,0.73,1.02c0,2.52-0.49,4.6-1.45,6.25c-0.97,1.65-2.13,2.96-3.49,3.92c-3.1,1.94-7.55,4.36-13.36,7.26
			s-12.25,5.96-19.32,9.15c-7.07,3.2-14.38,6.39-21.94,9.59c-7.55,3.2-14.67,6.25-21.35,9.15s-12.49,5.47-17.43,7.7
			c-4.94,2.23-8.28,3.83-10.02,4.79c0,6.59,1.31,12.74,3.92,18.45c2.61,5.72,6.25,10.71,10.9,14.96c4.65,4.26,10.21,7.6,16.71,10.02
			c6.49,2.42,13.61,3.63,21.35,3.63c6.97,0,13.26-0.73,18.88-2.18c5.62-1.45,10.36-3.1,14.24-4.94c3.87-1.84,6.92-3.49,9.15-4.94
			c2.22-1.45,3.44-2.18,3.63-2.18c0.77,0,1.55,0.34,2.32,1.02C807.48,2677.3,807.87,2678.02,807.87,2678.8z M705.6,2634.34
			c3.29-1.16,7.02-2.56,11.19-4.21c4.16-1.64,8.23-3.44,12.2-5.38c3.97-1.93,7.6-3.78,10.9-5.52c3.29-1.74,5.81-3.29,7.55-4.65
			c3.49-2.51,5.23-6.78,5.23-12.78c0-2.32-0.44-4.74-1.31-7.26c-0.87-2.51-2.18-4.79-3.92-6.83s-3.88-3.68-6.39-4.94
			c-2.52-1.26-5.33-1.89-8.43-1.89c-2.71,0-5.62,0.92-8.72,2.76c-3.1,1.84-6.01,4.84-8.72,9.01c-2.71,4.17-4.99,9.69-6.83,16.56
			C706.52,2616.09,705.6,2624.47,705.6,2634.34z"/>
		<path class="st0" d="M958.36,2716.57c-3.3-0.58-6.83-2.91-10.6-6.97c-3.78-4.07-7.46-8.86-11.04-14.38
			c-3.59-5.52-6.78-11.28-9.59-17.29c-2.81-6-4.89-11.14-6.25-15.4c-1.16,1.74-3.34,4.6-6.54,8.57c-3.2,3.97-6.83,8.18-10.9,12.64
			c-4.07,4.46-8.28,8.96-12.64,13.51c-4.36,4.55-8.09,8.28-11.19,11.19c-4.65,4.84-9.49,9.68-14.53,14.53
			c-5.04,4.84-10.02,9.15-14.96,12.93c-4.94,3.78-9.63,6.83-14.09,9.15c-4.45,2.32-8.43,3.49-11.91,3.49
			c-2.32,0-4.11-0.34-5.38-1.02c-1.26-0.68-2.18-1.21-2.76-1.6c0.78-0.97,1.94-3,3.49-6.1c1.55-3.1,3.25-6.73,5.08-10.89
			c1.84-4.17,3.68-8.62,5.52-13.37c1.84-4.74,3.34-9.34,4.5-13.8c0.58-0.58,1.07-0.87,1.45-0.87c0.58,0,0.97,0.92,1.16,2.76
			c0.2,1.84,0.58,3.88,1.16,6.1c0.58,2.23,1.6,4.26,3.05,6.1c1.45,1.84,3.73,2.76,6.83,2.76c5.04,0,10.7-2.42,17-7.26
			c6.29-4.84,12.59-10.89,18.88-18.16c6.29-7.26,12.3-15.25,18.01-23.97c5.71-8.72,10.5-16.85,14.38-24.41
			c-1.55-5.81-3.97-11.86-7.26-18.16c-3.3-6.29-7.12-12.1-11.48-17.43c-4.36-5.33-9.15-9.68-14.38-13.07
			c-5.23-3.39-10.56-5.08-15.98-5.08c-1.55,0-3.1,0.58-4.65,1.74c-1.55,1.16-3.3,2.03-5.23,2.62c-1.35,0-2.03-0.87-2.03-2.62
			c0-0.58,1.98-2.18,5.96-4.79c3.97-2.61,8.57-5.37,13.8-8.28c5.23-2.91,10.31-5.47,15.25-7.7c4.94-2.22,8.47-3.34,10.6-3.34
			c4.84,0,9.15,1.31,12.93,3.92c3.78,2.61,7.16,6.06,10.17,10.31c3,4.26,5.57,8.96,7.7,14.09c2.13,5.13,3.87,10.31,5.23,15.54
			c3.68-5.42,7.84-10.85,12.49-16.27c4.65-5.42,9.54-10.26,14.67-14.53c5.13-4.26,10.46-7.7,15.98-10.31
			c5.52-2.62,10.9-3.92,16.12-3.92c3.29,0,6.05,0.25,8.28,0.73c2.22,0.49,4.11,1.6,5.67,3.34c-0.2,0.97-1.12,3.39-2.76,7.26
			c-1.65,3.88-3.49,7.99-5.52,12.35s-3.92,8.28-5.67,11.77s-2.91,5.23-3.49,5.23c-1.16,0-2.42-0.63-3.78-1.89
			c-1.36-1.26-2.91-2.61-4.65-4.07c-1.74-1.45-3.83-2.8-6.25-4.07c-2.42-1.26-5.38-1.89-8.86-1.89c-6.78,0-12.45,2.91-17,8.72
			c-4.55,5.81-7.6,14.43-9.15,25.86c0.58,5.62,2.13,11.62,4.65,18.01c2.51,6.39,5.62,12.3,9.3,17.72
			c3.68,5.42,7.79,9.98,12.35,13.66c4.55,3.68,9.15,5.52,13.8,5.52c6.78,0,12.3-1.21,16.56-3.63c4.26-2.42,7.84-4.98,10.75-7.7
			c0.19-0.19,0.58-0.29,1.16-0.29c1.16,0,1.74,0.78,1.74,2.33c0,0.97-0.68,2.13-2.03,3.49c-1.36,1.36-3.05,2.76-5.08,4.21
			c-2.03,1.45-4.17,2.96-6.39,4.5c-2.23,1.55-4.31,3.1-6.25,4.65c-5.42,4.46-11.29,8.91-17.58,13.36
			C969.93,2711.14,963.98,2714.43,958.36,2716.57z"/>
		<path class="st0" d="M1198.92,2580.89c-0.39,1.16-1.5,2.96-3.34,5.37c-1.84,2.42-4.02,4.94-6.54,7.55
			c-2.52,2.61-5.18,5.13-7.99,7.55c-2.81,2.42-5.28,4.21-7.41,5.38c-1.36,0.58-2.18,0.39-2.47-0.58c-0.29-0.97-0.44-1.93-0.44-2.91
			c0-1.55-0.83-3.49-2.47-5.81c-1.65-2.32-3.97-4.6-6.97-6.83c-3-2.22-6.54-4.11-10.6-5.67c-4.07-1.55-8.53-2.32-13.36-2.32
			c-8.33,0-15.11,4.5-20.34,13.51c-5.23,9.01-7.84,20.97-7.84,35.88c0,9.11,1.4,17.29,4.21,24.55c2.81,7.26,6.68,13.37,11.62,18.3
			c4.94,4.94,10.9,8.72,17.87,11.33s14.53,3.92,22.66,3.92c11.04,0,19.85-1.4,26.44-4.21c6.58-2.81,12.01-6.05,16.27-9.73
			c0.19,0,0.34-0.1,0.44-0.29c0.1-0.19,0.24-0.29,0.44-0.29c0.97,0,1.64,0.34,2.03,1.02c0.39,0.68,0.58,1.5,0.58,2.47
			c0,0.78-0.2,1.36-0.58,1.74c-2.91,2.32-6.93,5.42-12.06,9.3c-5.13,3.88-10.99,7.7-17.58,11.48c-6.59,3.78-13.46,7.02-20.63,9.73
			c-7.17,2.71-14.24,4.07-21.21,4.07c-19.95,0-35.5-5.81-46.63-17.43c-11.14-11.62-16.71-27.5-16.71-47.65
			c0-15.3,2.95-28.18,8.86-38.64c5.91-10.46,13.17-18.83,21.79-25.13c8.62-6.29,17.77-10.79,27.46-13.51
			c9.68-2.71,18.2-4.07,25.57-4.07c6,0,11.38,0.44,16.12,1.31c4.74,0.87,8.81,1.94,12.2,3.2c3.39,1.26,6,2.57,7.84,3.92
			C1198,2578.76,1198.92,2579.92,1198.92,2580.89z"/>
		<path class="st0" d="M1310.48,2599.77c3.87-3.49,8.23-7.12,13.07-10.9c4.84-3.78,9.92-7.26,15.25-10.46
			c5.32-3.2,10.9-5.81,16.71-7.84c5.81-2.03,11.72-3.05,17.72-3.05c6.97,0,13.51,1.12,19.61,3.34c6.1,2.23,11.48,5.47,16.12,9.73
			c4.65,4.26,8.33,9.35,11.04,15.25c2.71,5.91,4.07,12.54,4.07,19.9c0,14.92-2.57,28.62-7.7,41.11
			c-5.13,12.49-11.14,23.44-18.01,32.83c-6.88,9.4-13.71,17.19-20.48,23.39c-6.78,6.2-11.82,10.26-15.11,12.2
			c-0.97,0.58-1.94,0.39-2.91-0.58c-0.97-0.97-0.97-2.03,0-3.2c1.55-1.16,3.92-4.02,7.12-8.57s6.44-10.31,9.73-17.29
			c3.29-6.97,6.2-14.91,8.72-23.82c2.51-8.91,3.78-18.49,3.78-28.76c0-8.52-1.02-16.07-3.05-22.66c-2.03-6.58-4.79-12.1-8.28-16.56
			c-3.49-4.45-7.51-7.84-12.06-10.17c-4.55-2.32-9.44-3.49-14.67-3.49c-3.49,0-7.17,0.54-11.04,1.6c-3.88,1.07-7.46,2.57-10.75,4.5
			c-3.49,2.13-6.88,4.75-10.17,7.84c-3.3,3.1-5.72,6.3-7.26,9.59c-0.39,0.78-0.73,1.5-1.02,2.18c-0.29,0.68-0.58,1.65-0.87,2.91
			c-0.29,1.26-0.58,2.86-0.87,4.79c-0.29,1.94-0.54,4.55-0.73,7.84c-0.58,5.62-1.02,11.09-1.31,16.42
			c-0.29,5.33-0.44,11.67-0.44,19.03c0,9.49,0.58,16.81,1.74,21.94c1.16,5.13,4.55,8.09,10.17,8.86c0.58,0,1.26-0.05,2.03-0.15
			c0.77-0.1,1.64-0.24,2.62-0.44c0.77-0.19,1.74-0.48,2.91-0.87c0.58,0,1.02,0.29,1.31,0.87s0.44,1.16,0.44,1.74
			s-1.07,1.45-3.2,2.61c-2.13,1.16-4.84,2.37-8.14,3.63c-3.3,1.26-6.93,2.52-10.9,3.78c-3.97,1.26-7.7,2.47-11.19,3.63
			c-3.68,0.97-6.83,1.84-9.44,2.62c-2.61,0.77-4.41,1.16-5.38,1.16c-5.81,0-8.72-2.23-8.72-6.68c0-0.97,0.48-2.8,1.45-5.52
			c0.97-2.71,1.74-6.87,2.32-12.49c0.77-8.13,1.55-17.09,2.32-26.88c0.77-9.78,1.4-19.61,1.89-29.49
			c0.48-9.88,0.87-19.56,1.16-29.05c0.29-9.49,0.44-18.01,0.44-25.57c0-13.95-0.25-25.76-0.73-35.45
			c-0.49-9.68-0.92-16.56-1.31-20.63c-0.58-5.03-1.16-8.38-1.74-10.02c-0.58-1.64-1.26-3.15-2.03-4.5
			c-0.97-1.74-2.18-2.95-3.63-3.63c-1.45-0.68-2.81-1.11-4.07-1.31c-1.26-0.19-2.32-0.24-3.2-0.15c-0.87,0.1-1.31-0.04-1.31-0.44
			c0-2.71,0.87-4.94,2.61-6.68c1.74-1.74,4.07-2.61,6.97-2.61c5.62,0,11.43-0.1,17.43-0.29c6-0.19,11.52-0.48,16.56-0.87
			c4.26-0.39,8.18-0.97,11.77-1.74c3.58-0.77,5.96-1.35,7.12-1.74c1.55-0.19,2.37,0.05,2.47,0.73c0.1,0.68,0.15,1.89,0.15,3.63
			c0,1.16-0.49,2.03-1.45,2.62c-0.97,0.58-2.03,1.07-3.2,1.45c-1.16,0.39-2.28,0.73-3.34,1.02c-1.07,0.29-1.79,0.73-2.18,1.31
			c-0.78,1.16-1.55,4.75-2.32,10.75c-0.78,6.01-1.5,13.61-2.18,22.81c-0.68,9.2-1.26,19.42-1.74,30.65
			c-0.49,11.24-0.83,22.57-1.02,33.99L1310.48,2599.77z"/>
		<path class="st0" d="M1582.42,2622.43c-1.16-6-2.52-11.38-4.07-16.13c-1.55-4.74-3.49-8.72-5.81-11.91
			c-2.32-3.2-5.13-5.62-8.43-7.26c-3.3-1.64-7.36-2.47-12.2-2.47c-4.26,0-8.18,0.78-11.77,2.32c-3.59,1.55-6.68,3.39-9.3,5.52
			c-2.62,2.13-4.65,4.26-6.1,6.39c-1.45,2.13-2.28,3.78-2.47,4.94c-0.2,1.55-1.07,2.32-2.61,2.32c-2.71,0-5.23-0.97-7.55-2.91
			c-2.32-1.93-3.49-4.26-3.49-6.97c0-1.55,0.19-2.71,0.58-3.49c4.45-2.51,9.88-5.23,16.27-8.13s13.02-5.62,19.9-8.13
			c6.87-2.51,13.7-4.6,20.48-6.25c6.78-1.64,12.88-2.47,18.3-2.47c8.14,0,14.38,1.16,18.74,3.49c4.36,2.32,7.6,5.62,9.73,9.88
			c2.13,4.26,3.44,9.25,3.92,14.96c0.48,5.71,0.92,11.87,1.31,18.45c0.58,9.88,1.35,19.42,2.32,28.62
			c0.97,9.2,2.42,17.34,4.36,24.41c1.93,7.07,4.4,12.78,7.41,17.14c3,4.36,6.73,6.54,11.19,6.54c2.13,0,4.45-0.39,6.97-1.16
			c2.51-0.77,4.94-1.69,7.26-2.76c2.32-1.06,4.4-2.13,6.25-3.2c1.84-1.06,3.05-1.79,3.63-2.18c1.74,0,2.8,0.87,3.2,2.62
			c0,0.97-0.2,1.84-0.58,2.61c-0.39,0.39-1.84,1.36-4.36,2.91c-2.52,1.55-5.62,3.39-9.3,5.52c-3.68,2.13-7.75,4.41-12.2,6.83
			c-4.46,2.42-8.86,4.7-13.22,6.83c-4.36,2.13-8.38,3.87-12.06,5.23c-3.68,1.35-6.59,2.03-8.72,2.03c-2.52,0-4.7-1.02-6.54-3.05
			c-1.84-2.03-3.44-4.74-4.79-8.13c-1.36-3.39-2.52-7.31-3.49-11.77c-0.97-4.45-1.84-9.1-2.62-13.95
			c-3.49,2.91-7.94,6.35-13.36,10.31c-5.42,3.97-11.33,7.7-17.72,11.19s-12.93,6.44-19.61,8.86c-6.68,2.42-13.12,3.63-19.32,3.63
			c-5.23,0-9.78-0.83-13.66-2.47c-3.88-1.64-7.12-3.82-9.73-6.54c-2.61-2.71-4.55-5.86-5.81-9.44c-1.26-3.58-1.89-7.31-1.89-11.19
			c0-6.2,1.89-11.28,5.67-15.25c3.78-3.97,9.63-8.08,17.58-12.35c3.68-1.93,8.81-4.5,15.4-7.7c6.58-3.2,13.31-6.44,20.19-9.73
			c6.87-3.29,13.26-6.44,19.17-9.44C1575.4,2626.55,1579.71,2624.17,1582.42,2622.43z M1590.85,2667.46
			c-0.58-3.29-1.16-6.87-1.74-10.75c-0.58-3.87-1.16-7.55-1.74-11.04s-1.12-6.49-1.6-9.01c-0.49-2.51-0.83-4.16-1.02-4.94
			c-3.1,1.16-6.59,2.52-10.46,4.07c-3.88,1.55-7.75,3.25-11.62,5.08c-3.88,1.84-7.55,3.68-11.04,5.52
			c-3.49,1.84-6.39,3.54-8.72,5.08c-4.46,2.91-7.84,5.81-10.17,8.72c-2.32,2.91-3.49,6.39-3.49,10.46c0,5.62,1.64,10.56,4.94,14.82
			c3.29,4.26,8.43,6.39,15.4,6.39c3.68,0,7.5-0.68,11.48-2.03c3.97-1.35,7.65-2.91,11.04-4.65c3.39-1.74,6.34-3.49,8.86-5.23
			c2.51-1.74,4.26-3.1,5.23-4.07c1.55-1.55,2.76-2.86,3.63-3.92C1590.7,2670.91,1591.04,2669.4,1590.85,2667.46z"/>
		<path class="st0" d="M1760.52,2636.09c-0.2,1.74-0.39,3.3-0.58,4.65c-0.2,1.36-0.34,2.91-0.44,4.65c-0.1,1.74-0.2,3.92-0.29,6.54
			c-0.1,2.62-0.15,6.06-0.15,10.31c0,6.97,0.24,12.69,0.73,17.14c0.48,4.46,1.21,7.99,2.18,10.6c0.97,2.61,2.18,4.41,3.63,5.38
			c1.45,0.97,3.24,1.45,5.38,1.45c1.35,0,2.81-0.19,4.36-0.58c0.39,0,0.73,0.54,1.02,1.6c0.29,1.07,0.24,1.79-0.15,2.18
			c-1.16,0.97-3.44,2.37-6.83,4.21c-3.39,1.84-7.22,3.63-11.48,5.37c-4.26,1.74-8.67,3.29-13.22,4.65
			c-4.55,1.35-8.38,2.03-11.48,2.03c-2.71,0-4.84-0.34-6.39-1.02c-1.55-0.68-2.32-1.5-2.32-2.47s0.1-1.55,0.29-1.74
			c0.19-0.19,0.48-0.68,0.87-1.45c0.39-0.97,0.68-2.18,0.87-3.63c0.19-1.45,0.48-3.15,0.87-5.08c0.39-2.71,0.77-6.15,1.16-10.31
			c0.39-4.16,0.77-8.72,1.16-13.66c0.39-4.94,0.73-10.07,1.02-15.4c0.29-5.33,0.44-10.5,0.44-15.54c0-2.13-0.05-4.79-0.15-7.99
			c-0.1-3.2-0.25-7.31-0.44-12.35c-0.2-5.62-0.83-10.41-1.89-14.38c-1.07-3.97-2.42-7.16-4.07-9.59c-1.65-2.42-3.49-4.21-5.52-5.38
			c-2.03-1.16-4.02-1.74-5.96-1.74c-0.97,0-1.94,0-2.91,0c-0.97,0-1.94,0.1-2.91,0.29c-0.78,0-1.16-0.87-1.16-2.62
			c0-0.39,0.15-0.73,0.44-1.02c0.29-0.29,1.21-0.92,2.76-1.89c2.51-1.74,5.91-3.87,10.17-6.39c4.26-2.51,8.62-4.84,13.07-6.97
			c4.45-2.13,8.67-3.97,12.64-5.52c3.97-1.55,7.02-2.32,9.15-2.32c5.62,0,8.43,3.2,8.43,9.59c0,0.97-0.1,2.71-0.29,5.23
			c-0.2,2.52-0.34,5.08-0.44,7.7c-0.1,2.62-0.25,5.08-0.44,7.41c-0.2,2.33-0.29,3.88-0.29,4.65c4.07-3.87,8.43-7.84,13.07-11.91
			s9.68-7.79,15.11-11.19c5.42-3.39,11.14-6.15,17.14-8.28c6-2.13,12.2-3.2,18.59-3.2c11.62,0,21.16,3.34,28.62,10.02
			c7.45,6.68,11.19,17.29,11.19,31.81c0,3.88-0.25,8.43-0.73,13.66c-0.49,5.23-1.02,10.65-1.6,16.27
			c-0.58,5.62-1.12,11.14-1.6,16.56c-0.49,5.42-0.73,10.27-0.73,14.53c0,15.5,5.03,23.24,15.11,23.24c1.93,0,4.11-0.34,6.54-1.02
			c2.42-0.68,4.74-1.45,6.97-2.32c2.22-0.87,4.21-1.74,5.96-2.61c1.74-0.87,2.91-1.6,3.49-2.18c0.19-0.19,0.44-0.04,0.73,0.44
			c0.29,0.49,0.53,1.12,0.73,1.89c0.19,0.78,0.24,1.45,0.14,2.03c-0.1,0.58-0.25,0.97-0.44,1.16c-1.55,0.97-4.89,2.81-10.02,5.52
			c-5.13,2.71-10.85,5.47-17.14,8.28c-6.3,2.81-12.54,5.33-18.74,7.55c-6.2,2.22-11.14,3.34-14.82,3.34c-4.46,0-7.51-1.07-9.15-3.2
			c-1.65-2.13-2.47-4.36-2.47-6.68c0-1.55,0.24-3.49,0.73-5.81c0.48-2.32,1.11-6.1,1.89-11.33c0.77-5.62,1.5-12.2,2.18-19.76
			c0.68-7.55,1.02-15.69,1.02-24.4c0-17.04-3.15-29.97-9.44-38.79c-6.3-8.81-14.19-13.22-23.68-13.22c-6.01,0-11.33,1.16-15.98,3.49
			s-8.62,5.47-11.91,9.44c-3.3,3.97-5.91,8.53-7.84,13.66C1762.36,2624.81,1761.1,2630.28,1760.52,2636.09z"/>
		<path class="st0" d="M2145.48,2585.53c-3.88,2.91-10.31,5.47-19.32,7.7c-9.01,2.23-19.42,3.34-31.23,3.34
			c-2.32,0-4.89,0.05-7.7,0.15c-2.81,0.1-4.99,0.14-6.54,0.14c0.77,7.36-0.15,14.92-2.76,22.66c-2.61,7.75-5.62,15.06-9.01,21.94
			c-3.39,6.88-6.54,12.93-9.44,18.16c-2.91,5.23-4.36,9.01-4.36,11.33c0,3.1,1.35,6.1,4.07,9.01c2.71,2.91,6.1,5.81,10.17,8.72
			s8.43,5.86,13.07,8.86c4.65,3,9.01,6.2,13.07,9.59c4.07,3.39,7.45,7.12,10.17,11.19c2.71,4.07,4.07,8.52,4.07,13.36
			c0,6.97-2.66,14.62-7.99,22.95c-5.33,8.33-12.54,16.13-21.64,23.39c-9.11,7.26-19.76,13.32-31.96,18.16
			c-12.2,4.84-25.18,7.26-38.93,7.26c-6.39,0-13.32-0.68-20.77-2.03c-7.46-1.36-14.34-3.39-20.63-6.1
			c-6.3-2.71-11.53-6.06-15.69-10.02c-4.17-3.97-6.25-8.67-6.25-14.09c0-3.1,2.37-7.17,7.12-12.2c4.74-5.04,10.21-10.17,16.42-15.4
			c6.2-5.23,12.3-10.27,18.3-15.11c6-4.84,10.26-8.72,12.78-11.62c0.58,0,1.31,0.39,2.18,1.16c0.87,0.77,1.31,1.64,1.31,2.62
			c0,0.19-0.05,0.34-0.15,0.44c-0.1,0.1-0.15,0.24-0.15,0.44c-1.94,1.55-4.31,3.49-7.12,5.81c-2.81,2.32-5.57,4.84-8.28,7.55
			c-2.71,2.71-5.04,5.67-6.97,8.86c-1.94,3.2-2.91,6.34-2.91,9.44c0,4.07,1.6,8.08,4.79,12.06c3.2,3.97,7.36,7.5,12.49,10.6
			c5.13,3.1,10.99,5.62,17.58,7.55c6.58,1.93,13.26,2.91,20.05,2.91c13.95,0,24.55-3.05,31.81-9.15s10.89-14.67,10.89-25.71
			c0-4.65-1.31-9.11-3.92-13.37c-2.61-4.26-5.81-8.23-9.59-11.91c-3.78-3.68-7.94-7.12-12.49-10.31c-4.55-3.2-8.72-6.15-12.49-8.86
			c-3.78-2.71-6.97-5.23-9.59-7.55s-3.92-4.45-3.92-6.39c0-1.74,0.53-3.73,1.6-5.96c1.06-2.22,2.27-4.45,3.63-6.68
			c1.35-2.22,2.56-4.26,3.63-6.1c1.06-1.84,1.6-3.24,1.6-4.21c0,0.2-0.2-0.09-0.58-0.87c-1.36,1.36-3.3,2.71-5.81,4.07
			c-2.52,1.36-5.47,2.62-8.86,3.78c-3.39,1.16-6.97,2.13-10.75,2.91c-3.78,0.78-7.6,1.16-11.48,1.16c-7.36,0-13.85-1.21-19.47-3.63
			c-5.62-2.42-10.31-5.67-14.09-9.73c-3.78-4.07-6.64-8.76-8.57-14.09c-1.94-5.33-2.91-10.99-2.91-17c0-8.91,1.31-16.56,3.92-22.95
			s5.91-11.81,9.88-16.27c3.97-4.45,8.18-8.08,12.64-10.89c4.45-2.81,8.52-5.18,12.2-7.12c2.32-1.16,5.08-2.27,8.28-3.34
			c3.2-1.06,6.63-2.03,10.31-2.91c3.68-0.87,7.45-1.6,11.33-2.18c3.87-0.58,7.55-0.87,11.04-0.87c12.2,0,22.08,1.36,29.63,4.07
			c7.55,2.71,12.49,5.13,14.82,7.26c2.33,0.39,6.49,0.68,12.49,0.87c6,0.2,12.39,0.29,19.18,0.29c6.78,0,13.22,0,19.32,0
			s10.41,0,12.93,0c0.97,0,1.93,0,2.91,0c0.97,0,1.93-0.1,2.91-0.29c0.97,0.2,1.35,0.68,1.16,1.45
			C2146.73,2584.57,2146.25,2585.15,2145.48,2585.53z M2025.78,2663.98c2.71,0,5.42-0.58,8.13-1.74c2.71-1.16,5.18-3.15,7.41-5.96
			c2.22-2.81,4.07-6.58,5.52-11.33c1.45-4.74,2.18-10.7,2.18-17.87c0-6.58-0.73-12.68-2.18-18.3c-1.45-5.62-3.63-10.46-6.54-14.53
			s-6.49-7.21-10.75-9.44c-4.26-2.22-9.3-3.34-15.11-3.34c-8.33,0-15.4,3.15-21.21,9.44c-5.81,6.3-8.72,15.25-8.72,26.87
			c0,6.39,1.16,12.4,3.49,18.01c2.32,5.62,5.38,10.51,9.15,14.67c3.78,4.17,8.18,7.46,13.22,9.88
			C2015.41,2662.77,2020.55,2663.98,2025.78,2663.98z"/>
		<path class="st0" d="M2309.33,2678.8c-2.13,2.32-5.42,5.52-9.88,9.59c-4.46,4.07-9.83,8.14-16.13,12.2
			c-6.3,4.07-13.32,7.55-21.06,10.46c-7.75,2.91-15.98,4.36-24.7,4.36c-7.94,0-15.69-1.21-23.24-3.63
			c-7.55-2.42-14.34-6.1-20.34-11.04c-6.01-4.94-10.8-11.23-14.38-18.88c-3.59-7.65-5.38-16.8-5.38-27.46
			c0-8.72,0.58-16.22,1.74-22.52c1.16-6.29,2.71-11.81,4.65-16.56c1.93-4.74,4.11-8.81,6.54-12.2c2.42-3.39,4.89-6.44,7.41-9.15
			c3.1-3.49,6.87-6.78,11.33-9.88c4.45-3.1,9.25-5.91,14.38-8.43c5.13-2.51,10.55-4.5,16.27-5.96c5.71-1.45,11.48-2.18,17.29-2.18
			c10.46,0,18.64,1.74,24.55,5.23c5.91,3.49,8.86,8.33,8.86,14.53c0,3.88-1.16,7.46-3.49,10.75c1.93-0.58,4.4-1.55,7.41-2.91
			c3-1.35,6.05-2.76,9.15-4.21c3.1-1.45,5.86-2.76,8.28-3.92c2.42-1.16,4.02-2.03,4.79-2.61c0.39-0.39,0.82-0.53,1.31-0.44
			c0.48,0.1,0.73,0.44,0.73,1.02c0,2.52-0.49,4.6-1.45,6.25c-0.97,1.65-2.13,2.96-3.49,3.92c-3.1,1.94-7.55,4.36-13.37,7.26
			c-5.81,2.91-12.25,5.96-19.32,9.15c-7.07,3.2-14.38,6.39-21.94,9.59c-7.55,3.2-14.67,6.25-21.35,9.15
			c-6.68,2.91-12.49,5.47-17.43,7.7c-4.94,2.23-8.28,3.83-10.02,4.79c0,6.59,1.31,12.74,3.92,18.45c2.62,5.72,6.25,10.71,10.9,14.96
			c4.65,4.26,10.21,7.6,16.71,10.02c6.49,2.42,13.6,3.63,21.35,3.63c6.97,0,13.27-0.73,18.88-2.18c5.62-1.45,10.36-3.1,14.24-4.94
			c3.87-1.84,6.92-3.49,9.15-4.94c2.22-1.45,3.44-2.18,3.63-2.18c0.77,0,1.55,0.34,2.32,1.02
			C2308.94,2677.3,2309.33,2678.02,2309.33,2678.8z M2207.07,2634.34c3.29-1.16,7.02-2.56,11.19-4.21c4.16-1.64,8.23-3.44,12.2-5.38
			c3.97-1.93,7.6-3.78,10.9-5.52c3.29-1.74,5.81-3.29,7.55-4.65c3.49-2.51,5.23-6.78,5.23-12.78c0-2.32-0.44-4.74-1.31-7.26
			c-0.87-2.51-2.18-4.79-3.92-6.83s-3.88-3.68-6.39-4.94c-2.52-1.26-5.33-1.89-8.43-1.89c-2.71,0-5.62,0.92-8.72,2.76
			c-3.1,1.84-6.01,4.84-8.72,9.01c-2.71,4.17-4.99,9.69-6.83,16.56C2207.98,2616.09,2207.07,2624.47,2207.07,2634.34z"/>
	</g>
</g>
<path class="st0" d="M1833.2,1458.2c-0.14,33.2,4.33,64.73,13.71,96.57c4.62,15.69,10.31,30.85,17.15,45.71
	c0.42,0.92,0.85,1.84,1.28,2.75c0.21,0.46,0.43,0.91,0.65,1.37c0.22,0.45,0.55,0.83,0.62,1.37c0.24,1.96,0.43,3.92,0.57,5.89
	c0.28,4.01,0.36,8,0.23,12.02c-0.26,8.27-1.36,16.29-3.33,24.33c-3.95,16.11-11.26,31.2-21.45,44.28c-2.48,3.18-5.1,6.22-7.89,9.13
	c-2.75,2.87-5.77,5.47-8.59,8.27c-5.97,5.93-10.4,12.41-13.76,20.13c-3.04,6.98-5.11,16.08-6.25,23.52
	c-0.62,4.04-1.04,8.08-1.26,12.16c-0.23,4.06-0.32,8.1-0.99,12.14c-1.38,8.29-4.09,15.64-8.42,22.84
	c-4.21,6.98-8.93,13.49-14.24,19.66c-10.95,12.72-23.19,22.82-37.75,31.17c-3.52,2.02-7.11,3.88-10.79,5.6
	c-3.66,1.71-7.46,3.12-11.05,5c-7.34,3.83-13.39,9.05-19.52,14.41c-24.67,21.58-45.51,47.18-61.64,75.71
	c-8.06,14.26-14.8,28.94-20.35,44.35c-0.68,1.9-1.35,3.8-1.99,5.71c-0.32,0.95-0.64,1.91-0.95,2.86c-0.08,0.24-0.16,0.48-0.23,0.72
	c-0.11,0.34-0.11-0.34-0.13-0.51c-0.08-0.5-0.16-0.99-0.24-1.49c-0.66-4-1.44-7.96-2.35-11.9c-1.84-7.98-4.17-15.76-7.01-23.44
	c-5.76-15.56-13.22-29.79-22.73-43.38c-2.33-3.32-4.75-6.57-7.29-9.74c-0.63-0.79-1.27-1.57-1.91-2.35
	c-0.32-0.39-0.64-0.77-0.97-1.16c-0.16-0.19-0.32-0.39-0.49-0.58c-0.08-0.1-0.16-0.19-0.24-0.29c-0.06-0.07-0.17-0.31-0.21-0.15
	c-0.47,1.89-0.95,3.77-1.46,5.65c-2.07,7.64-4.5,15.14-7.29,22.55c-23.5,62.42-70.99,112.85-131.9,140.04
	c-7.3,3.26-14.71,6.15-22.29,8.7c-3.72,1.25-7.47,2.41-11.25,3.48c-1.87,0.53-3.75,1.04-5.63,1.53c-0.23,0.06-0.47,0.12-0.7,0.18
	c-0.1,0.03-0.36,0.23-0.3,0.04c0.04-0.11,0.08-0.22,0.12-0.33c0.16-0.44,0.31-0.89,0.47-1.33c0.31-0.89,0.61-1.79,0.91-2.69
	c4.98-15.04,8.18-30.16,9.71-45.92c3.24-33.36-1.5-67.01-13.84-98.18c-12.23-30.87-31.55-58.41-56.42-80.41
	c-5.86-5.18-11.96-10-18.35-14.5c-3.11-2.19-6.27-4.29-9.5-6.31c-1.1-0.69-7.79-7.32-8.68-8.2c-11.5-11.43-22.19-23.46-32.2-36.21
	c-40.54-51.68-67.48-112.7-78.36-177.47c-0.66-3.95-1.27-7.92-1.81-11.89c-0.14-0.99-0.27-1.98-0.4-2.97
	c-0.03-0.25-0.06-0.49-0.1-0.74c-0.02-0.16,0.11-0.23,0.16-0.34c0.05-0.11,0.11-0.23,0.16-0.34c0.22-0.45,0.43-0.91,0.65-1.36
	c0.86-1.82,1.71-3.65,2.54-5.49c3.34-7.4,6.41-14.89,9.21-22.51c5.66-15.41,10.14-31.02,13.51-47.09
	c3.37-16.09,5.54-32.21,6.54-48.62c0.49-8.13,0.69-16.26,0.6-24.4c-0.05-4.05-0.17-8.09-0.36-12.14c-0.1-2.02-0.21-4.03-0.34-6.04
	c-0.07-1.01-0.14-2.01-0.21-3.02c-0.01-0.19-0.56-0.21-0.67-0.23c-0.25-0.05-0.5-0.11-0.75-0.16c-0.5-0.11-1-0.22-1.49-0.33
	c-63.67-14.11-126.27-31.24-188.26-51.53c-0.96-0.32-1.93-0.63-2.89-0.95c-0.48-0.16-0.96-0.32-1.44-0.47
	c-0.24-0.08-0.48-0.16-0.72-0.24c-0.12-0.04-0.24-0.08-0.36-0.12c-0.18-0.06,0.01-0.18,0.06-0.27c1.08-1.72,2.15-3.44,3.2-5.18
	c2.11-3.48,4.16-6.99,6.14-10.54c3.99-7.12,7.73-14.35,11.22-21.73c7.01-14.8,12.94-29.91,17.87-45.53
	c1.22-3.88,2.38-7.78,3.47-11.7c0.55-1.96,1.07-3.92,1.58-5.88c0.13-0.49,0.25-0.98,0.38-1.47c0.06-0.25,0.12-0.49,0.19-0.74
	c0.08-0.34-0.2,0.28-0.29,0.44c-0.5,0.88-1.01,1.76-1.52,2.64c-4.08,7.04-8.36,13.95-12.84,20.75
	c-9.01,13.66-18.72,26.69-29.24,39.22c-10.5,12.51-21.63,24.32-33.5,35.54c-0.37,0.35-0.74,0.7-1.11,1.04
	c-0.18,0.17-0.37,0.35-0.55,0.52c-0.22,0.21-0.45,0.15-0.7,0.15c-1.01,0.01-2.02,0.01-3.03,0.02c-2.02,0.01-4.05,0.01-6.07,0
	c-4.05-0.02-8.1-0.07-12.15-0.16c-8.12-0.17-16.23-0.47-24.35-0.91c-32.71-1.77-64.95-5.66-97.14-11.74
	c-32.2-6.08-63.66-14.21-94.77-24.5c-15.44-5.11-30.68-10.71-45.75-16.82c-3.75-1.52-7.49-3.07-11.22-4.66
	c-1.86-0.79-3.72-1.59-5.57-2.39c-0.46-0.2-0.93-0.4-1.39-0.61c-0.23-0.1-0.46-0.2-0.7-0.3c-0.12-0.05-0.23-0.1-0.35-0.15
	c-0.04-0.02-0.18-0.05-0.1-0.07c0.06-0.01,0.12-0.03,0.18-0.04c0.97-0.23,1.95-0.47,2.92-0.7c7.81-1.89,15.6-3.88,23.36-5.95
	c63.3-16.91,123.67-39.29,182.7-67.71c117.94-56.8,224.09-135.36,312.87-231.56c5.49-5.95,11.04-11.7,15.17-18.85
	c4.65-8.05,6.23-13.96,8.12-22.92c3.36-15.92,6.84-31.81,10.43-47.69c7.19-31.77,14.83-63.42,22.93-94.96
	c16.22-63.17,34.24-125.75,54.1-187.87c19.85-62.1,41.45-123.5,64.86-184.35c5.84-15.19,11.8-30.33,17.86-45.43
	c2.27-5.65,2.29-5.63,3.86-11.52c1.05-3.93,1.96-7.89,2.73-11.88c1.55-8.05,2.53-16.12,2.93-24.31c0.41-8.18,0.24-16.29-0.5-24.45
	c-0.18-2.02-0.4-4.04-0.66-6.05c-0.13-1-0.26-2.01-0.41-3.01c-0.07-0.5-0.15-1-0.22-1.5c-0.1-0.63,0.34-0.89,0.63-1.29
	c2.37-3.29,4.77-6.55,7.23-9.78c9.89-12.99,20.42-25.34,31.69-37.16c22.74-23.84,47.37-44.49,74.81-62.72
	c1.69-1.12,3.38-2.23,5.08-3.33c0.13-0.08,1.05-0.87,1.28-0.73c0.42,0.26,0.84,0.51,1.27,0.77c0.84,0.52,1.69,1.04,2.53,1.56
	c3.38,2.11,6.71,4.26,10.02,6.47c6.68,4.46,13.19,9.13,19.57,14c12.97,9.92,25.18,20.56,36.77,32.06
	c46.86,46.5,80.76,104.42,98.35,168.05c2.13,7.7,4.01,15.45,5.65,23.28c0.41,1.94,0.8,3.88,1.17,5.83c0.02,0.12,0.05,0.24,0.07,0.36
	c0.02,0.13-0.12-0.04-0.17-0.09c-0.18-0.18-0.35-0.35-0.53-0.52c-0.35-0.35-0.71-0.69-1.07-1.04c-0.72-0.69-1.44-1.38-2.17-2.05
	c-2.94-2.74-5.98-5.35-9.12-7.86c-13.05-10.43-26.89-18.4-42.46-24.45c-15.55-6.04-31.11-9.5-47.75-10.63
	c-4-0.27-7.99-0.39-11.99-0.36c-0.5,0-0.99,0.01-1.49,0.02c-0.12,0-0.25,0-0.37,0.01c-0.16,0-0.12,0.13-0.11,0.24
	c0.02,0.25,0.04,0.5,0.07,0.76c0.09,1.01,0.18,2.01,0.27,3.02c0.18,2.02,0.37,4.03,0.56,6.04c0.77,8.07,1.64,16.12,2.59,24.16
	c7.76,65.23,21.32,128.37,41.02,191.04c19.67,62.6,44.64,122.08,75.54,179.97c1.9,3.57,3.83,7.12,5.78,10.67
	c0.49,0.89,0.97,1.77,1.46,2.66c0.24,0.44,0.49,0.88,0.73,1.33c0.25,0.45,0.25,0.94,0.35,1.42c0.38,1.91,0.77,3.82,1.18,5.73
	c1.65,7.71,3.56,15.35,5.74,22.93c4.46,15.55,9.95,30.59,16.55,45.36c13.72,30.73,31,58.02,52.9,83.57
	c21.92,25.58,46.28,46.85,74.58,65.13c13.62,8.8,27.69,16.54,42.42,23.34c17.29,7.98,26.45,10.91,44.39,17.14
	c61.61,21.39,122.1,45.2,181.77,71.52c59.66,26.33,118.02,54.96,175.34,86.04c7.15,3.87,14.27,7.79,21.38,11.73
	c3.55,1.97,7.1,3.96,10.64,5.95c0.88,0.5,1.77,1,2.66,1.49c0.44,0.25,0.89,0.5,1.33,0.75c0.22,0.12,0.44,0.25,0.66,0.37
	c0.11,0.06,0.22,0.12,0.33,0.19c0.15,0.08-0.1,0.14-0.18,0.18c-1.79,0.94-3.58,1.89-5.37,2.82c-14.36,7.52-28.82,14.85-43.37,21.99
	c-29.2,14.33-58.73,27.87-88.64,40.65C2086.48,1394.56,1961.34,1433.09,1833.2,1458.2z M1219.68,1435.1
	c9.89,12.29,18.07,25.3,24.86,39.54c3.37,7.06,6.3,14.26,8.83,21.67c1.25,3.68,2.47,7.36,3.39,11.15c0.91,3.75,1.32,7.55,1.83,11.35
	c4.28,31.5,19.82,60.34,43.77,81.24c12.18,10.62,25.22,18.39,40.36,24.05c3.53,1.32,7.1,2.48,10.72,3.49
	c0.45,0.12,0.89,0.25,1.34,0.37c0.22,0.06,0.45,0.12,0.67,0.18c0.18,0.05,0.52,0.33,0.52-0.02c0.01-0.9,0.04-1.8,0.09-2.7
	c0.11-1.85,0.31-3.68,0.6-5.51c1.29-8.09,4.03-15.09,8.56-21.91c8.99-13.53,23.42-22.41,39.55-24.35c3.71-0.45,7.45-0.53,11.15-1.02
	c3.86-0.51,7.65-1.24,11.43-2.19c7.78-1.97,15.07-4.77,22.17-8.52c13.96-7.37,25.97-17.94,35.06-30.84
	c1.09-1.55,2.13-3.12,3.13-4.73c0.06-0.1,0.12-0.2,0.19-0.3c0.03-0.05,0.06-0.1,0.09-0.15c0.03-0.05,0.01-0.18,0.1-0.12
	c0.2,0.13,0.4,0.26,0.61,0.38c0.41,0.26,0.82,0.51,1.24,0.75c0.83,0.49,1.68,0.97,2.53,1.42c3.47,1.85,7.04,3.36,10.79,4.56
	c3.77,1.2,7.56,2.05,11.48,2.55c5.5,0.71,6.1,0.41,11.61,0.52c8.03,0.16,15.47-1.05,23.03-3.74c3.7-1.32,7.21-2.93,10.62-4.89
	c0.84-0.48,1.66-0.98,2.47-1.5c0.21-0.13,0.34,0.3,0.41,0.41c0.12,0.2,0.25,0.4,0.38,0.6c0.25,0.4,0.51,0.8,0.76,1.19
	c1.04,1.59,2.12,3.15,3.24,4.69c9.37,12.74,21.61,23.08,35.75,30.16c7.16,3.59,14.48,6.23,22.28,8.04
	c3.77,0.87,7.57,1.52,11.41,1.95c3.68,0.41,7.39,0.47,11.06,1.04c16.1,2.5,30.27,11.94,38.77,25.84c4.24,6.93,6.7,13.96,7.71,22.03
	c0.23,1.81,0.36,3.63,0.41,5.45c0.01,0.22,0.01,0.45,0.01,0.67c0,0.11,0,0.22,0,0.33c0,0.21,0.21-0.02,0.31-0.05
	c0.45-0.12,0.89-0.23,1.34-0.36c0.9-0.24,1.79-0.49,2.68-0.76c3.62-1.06,7.19-2.28,10.71-3.65c15.08-5.88,28.03-13.85,40.06-24.68
	c23.61-21.23,38.71-50.26,42.53-81.78c1.1-9.08,2.63-13.98,5.65-22.55c2.6-7.38,5.61-14.56,9.05-21.59
	c1.72-3.5,3.53-6.95,5.44-10.35c0.06-0.11,0.12-0.21,0.18-0.32c0.09-0.16-0.19-0.01-0.28,0.01c-0.24,0.04-0.48,0.09-0.72,0.13
	c-0.48,0.09-0.96,0.18-1.44,0.26c-0.96,0.18-1.92,0.35-2.88,0.52c-1.92,0.35-3.84,0.69-5.75,1.03c-7.67,1.37-15.35,2.68-23.03,3.95
	c-15.43,2.55-30.89,4.9-46.38,7.06c-7.73,1.08-15.47,2.11-23.22,3.09c-3.87,0.49-7.74,0.97-11.61,1.43
	c-3.9,0.47-7.79,0.61-11.71,0.69c-31.29,0.67-62.55,0.6-93.83-0.21C1465.79,1476.86,1342.84,1461.99,1219.68,1435.1z
	 M1525.35,1608.68c-7.6,10.26-18.04,18.06-30.05,22.41c-6.11,2.22-12.22,3.46-18.71,3.81c-3.1,0.17-6.16,0.11-9.25-0.16
	c-1.48-0.13-2.9-0.5-4.35-0.79c-1.46-0.29-2.92-0.52-4.4-0.71c-25.69-3.2-50.76,9.48-63.41,32.06c-1.47,2.62-2.73,5.3-3.82,8.1
	c-0.13,0.34-0.26,0.68-0.39,1.02c-0.03,0.08-0.06,0.17-0.09,0.25c-0.05,0.13,0.08,0.13,0.16,0.17c0.18,0.09,0.35,0.18,0.53,0.26
	c0.71,0.35,1.42,0.7,2.13,1.04c1.42,0.69,2.85,1.37,4.28,2.03c5.75,2.67,11.56,5.15,17.47,7.46c11.84,4.62,23.85,8.45,36.18,11.53
	c0.76,0.19,1.52,0.38,2.28,0.56c0.38,0.09,0.76,0.18,1.14,0.27c0.38,0.09,0.72,0.2,1.12,0.03c1.44-0.61,2.88-1.21,4.33-1.78
	c2.91-1.15,5.86-2.23,8.83-3.22c5.98-2,12.02-3.67,18.18-5.03c12.38-2.72,24.7-4.07,37.38-4.11c12.68-0.03,25,1.26,37.4,3.91
	c6.17,1.32,12.22,2.96,18.21,4.94c2.98,0.98,5.92,2.04,8.85,3.18c1.46,0.57,2.9,1.15,4.34,1.76c0.18,0.08,0.36,0.15,0.54,0.23
	c0.23,0.1,0.38-0.05,0.57-0.1c0.38-0.09,0.76-0.18,1.14-0.28c0.76-0.19,1.52-0.38,2.28-0.57c12.32-3.12,24.32-6.98,36.14-11.63
	c5.9-2.32,11.71-4.82,17.44-7.5c1.43-0.67,2.86-1.35,4.28-2.04c0.71-0.35,1.42-0.7,2.13-1.05c0.35-0.18,0.71-0.35,1.06-0.53
	c0.09-0.05,0.18-0.09,0.26-0.13c0.13-0.07-0.01-0.16-0.03-0.23c-0.06-0.17-0.13-0.34-0.19-0.51c-1.09-2.79-2.35-5.47-3.81-8.07
	c-12.67-22.57-37.74-35.23-63.43-32.02c-1.48,0.18-2.94,0.42-4.4,0.71c-1.45,0.28-2.87,0.65-4.35,0.78
	c-3.09,0.27-6.15,0.33-9.25,0.16c-6.49-0.35-12.59-1.59-18.7-3.82C1543.38,1626.73,1532.94,1618.94,1525.35,1608.68z"/>
<path class="st0" d="M1072.7,2070.3c0.73,7.33,1.78,14.59,3.16,21.82c0.82,4.28,1.87,8.48,3.15,12.63c0.88,2.82,1.92,5.55,3.15,8.24
	c0.92,2.01,1.97,3.93,3.15,5.8c0.96,1.51,2,2.93,3.15,4.3c0.98,1.17,2.03,2.27,3.15,3.32c1,0.94,2.05,1.81,3.15,2.64
	c1.02,0.76,2.07,1.48,3.15,2.15c1.03,0.63,2.08,1.23,3.15,1.78c1.03,0.53,2.08,1.03,3.15,1.5c1.04,0.46,2.09,0.88,3.15,1.28
	c1.04,0.39,2.09,0.76,3.15,1.11c1.05,0.34,2.1,0.66,3.15,0.97c1.05,0.3,2.1,0.58,3.15,0.85c1.05,0.27,2.1,0.52,3.15,0.76
	c1.05,0.24,2.1,0.46,3.16,0.67c1.05,0.21,2.1,0.41,3.16,0.61c1.05,0.19,2.1,0.37,3.16,0.55c1.05,0.17,2.11,0.34,3.16,0.5
	c1.05,0.16,2.11,0.31,3.16,0.45c1.05,0.14,2.11,0.28,3.16,0.41c1.05,0.13,2.11,0.26,3.17,0.38c1.06,0.12,2.11,0.24,3.17,0.35
	c1.06,0.11,2.11,0.22,3.17,0.32c1.06,0.1,2.11,0.2,3.17,0.3s2.12,0.19,3.17,0.28c1.06,0.09,2.12,0.18,3.18,0.26
	c1.06,0.08,2.12,0.17,3.18,0.24c1.06,0.08,2.12,0.16,3.18,0.23c1.06,0.07,2.12,0.15,3.18,0.21c1.06,0.07,2.12,0.14,3.19,0.2
	c0.92,0.06,1.84,0.11,2.77,0.17v0.35c-0.92,0.05-1.84,0.11-2.77,0.17c-1.06,0.07-2.12,0.13-3.19,0.2c-1.06,0.07-2.12,0.14-3.18,0.21
	c-1.06,0.07-2.12,0.15-3.18,0.23c-1.06,0.08-2.12,0.16-3.18,0.24c-1.06,0.08-2.12,0.17-3.18,0.26c-1.06,0.09-2.12,0.18-3.17,0.28
	c-1.06,0.1-2.11,0.2-3.17,0.3c-1.06,0.1-2.11,0.21-3.17,0.32c-1.06,0.11-2.11,0.23-3.17,0.35c-1.06,0.12-2.11,0.25-3.17,0.38
	c-1.06,0.13-2.11,0.27-3.16,0.41c-1.05,0.14-2.11,0.3-3.16,0.45c-1.05,0.16-2.11,0.32-3.16,0.5c-1.05,0.17-2.11,0.36-3.16,0.55
	c-1.05,0.19-2.11,0.39-3.16,0.61c-1.05,0.21-2.11,0.44-3.16,0.67c-1.06,0.24-2.11,0.49-3.15,0.76c-1.06,0.27-2.11,0.55-3.15,0.85
	c-1.06,0.3-2.11,0.63-3.15,0.97c-1.06,0.35-2.11,0.72-3.15,1.11c-1.06,0.4-2.11,0.83-3.15,1.28c-1.07,0.47-2.12,0.97-3.15,1.5
	c-1.07,0.55-2.12,1.15-3.15,1.78c-1.08,0.67-2.13,1.38-3.15,2.15c-1.1,0.82-2.14,1.7-3.15,2.64c-1.12,1.04-2.16,2.15-3.15,3.32
	c-1.15,1.37-2.19,2.79-3.15,4.3c-1.18,1.87-2.23,3.79-3.15,5.8c-1.23,2.68-2.27,5.42-3.15,8.24c-1.29,4.16-2.34,8.36-3.15,12.63
	c-1.38,7.23-2.43,14.5-3.16,21.82h-0.43c-0.73-7.33-1.78-14.59-3.16-21.82c-0.82-4.28-1.87-8.47-3.15-12.63
	c-0.88-2.82-1.92-5.55-3.15-8.24c-0.92-2.01-1.97-3.93-3.15-5.8c-0.96-1.51-2-2.93-3.15-4.3c-0.98-1.17-2.03-2.27-3.15-3.32
	c-1-0.94-2.05-1.81-3.15-2.64c-1.02-0.76-2.07-1.48-3.15-2.15c-1.03-0.63-2.08-1.23-3.15-1.78c-1.03-0.53-2.08-1.03-3.15-1.5
	c-1.04-0.46-2.09-0.88-3.15-1.28c-1.04-0.39-2.09-0.76-3.15-1.11c-1.04-0.34-2.1-0.66-3.15-0.97c-1.05-0.3-2.1-0.58-3.15-0.85
	c-1.05-0.27-2.1-0.52-3.15-0.76c-1.05-0.24-2.1-0.46-3.16-0.67c-1.05-0.21-2.1-0.41-3.16-0.61c-1.05-0.19-2.1-0.37-3.16-0.55
	c-1.05-0.17-2.11-0.34-3.16-0.5c-1.05-0.16-2.11-0.31-3.16-0.45c-1.05-0.14-2.11-0.28-3.16-0.41c-1.05-0.13-2.11-0.26-3.17-0.38
	c-1.06-0.12-2.11-0.24-3.17-0.35c-1.06-0.11-2.11-0.22-3.17-0.32c-1.06-0.1-2.11-0.2-3.17-0.3c-1.06-0.1-2.12-0.19-3.17-0.28
	c-1.06-0.09-2.12-0.18-3.18-0.26c-1.06-0.08-2.12-0.17-3.18-0.24c-1.06-0.08-2.12-0.15-3.18-0.23c-1.06-0.07-2.12-0.15-3.18-0.21
	c-1.06-0.07-2.12-0.14-3.19-0.2c-0.92-0.06-1.84-0.11-2.77-0.17v-0.35c0.92-0.05,1.84-0.11,2.77-0.17c1.06-0.07,2.12-0.13,3.19-0.2
	c1.06-0.07,2.12-0.14,3.18-0.21c1.06-0.07,2.12-0.15,3.18-0.23c1.06-0.08,2.12-0.16,3.18-0.24c1.06-0.08,2.12-0.17,3.18-0.26
	c1.06-0.09,2.12-0.18,3.17-0.28c1.06-0.1,2.11-0.2,3.17-0.3c1.06-0.1,2.11-0.21,3.17-0.32c1.06-0.11,2.11-0.23,3.17-0.35
	c1.06-0.12,2.11-0.25,3.17-0.38c1.06-0.13,2.11-0.27,3.16-0.41c1.06-0.14,2.11-0.3,3.16-0.45c1.05-0.16,2.11-0.32,3.16-0.5
	c1.05-0.17,2.11-0.36,3.16-0.55c1.05-0.19,2.11-0.39,3.16-0.61c1.05-0.21,2.11-0.44,3.16-0.67c1.05-0.24,2.11-0.49,3.15-0.76
	c1.06-0.27,2.11-0.55,3.15-0.85c1.06-0.3,2.11-0.63,3.15-0.97c1.06-0.35,2.11-0.72,3.15-1.11c1.06-0.4,2.11-0.83,3.15-1.28
	c1.07-0.47,2.11-0.97,3.15-1.5c1.07-0.55,2.12-1.15,3.15-1.78c1.08-0.67,2.13-1.38,3.15-2.15c1.1-0.82,2.14-1.7,3.15-2.64
	c1.12-1.04,2.16-2.15,3.15-3.32c1.15-1.37,2.19-2.79,3.15-4.3c1.18-1.87,2.23-3.79,3.15-5.8c1.23-2.68,2.27-5.42,3.15-8.24
	c1.29-4.16,2.34-8.36,3.15-12.63c1.38-7.23,2.43-14.49,3.16-21.82"/>
<path class="st0" d="M988.51,2011.25c0.4,3.97,0.97,7.91,1.71,11.83c0.44,2.32,1.01,4.59,1.71,6.85c0.48,1.53,1.04,3.01,1.71,4.47
	c0.5,1.09,1.07,2.13,1.71,3.14c0.52,0.82,1.08,1.59,1.71,2.33c0.53,0.63,1.1,1.23,1.71,1.8c0.54,0.51,1.11,0.98,1.71,1.43
	c0.55,0.41,1.12,0.8,1.71,1.16c0.56,0.34,1.13,0.66,1.71,0.96c0.56,0.29,1.13,0.56,1.71,0.81c0.56,0.25,1.13,0.48,1.71,0.69
	c0.57,0.21,1.13,0.41,1.71,0.6c0.57,0.19,1.14,0.36,1.71,0.52c0.57,0.16,1.14,0.32,1.71,0.46c0.57,0.14,1.14,0.28,1.71,0.41
	c0.57,0.13,1.14,0.25,1.71,0.37c0.57,0.11,1.14,0.22,1.71,0.33c0.57,0.1,1.14,0.2,1.71,0.3c0.57,0.09,1.14,0.18,1.71,0.27
	c0.57,0.09,1.14,0.17,1.71,0.25c0.57,0.08,1.14,0.15,1.71,0.22c0.57,0.07,1.14,0.14,1.72,0.21c0.57,0.07,1.14,0.13,1.72,0.19
	c0.57,0.06,1.14,0.12,1.72,0.18s1.15,0.11,1.72,0.16c0.57,0.05,1.15,0.1,1.72,0.15c0.57,0.05,1.15,0.1,1.72,0.14
	c0.57,0.05,1.15,0.09,1.72,0.13c0.57,0.04,1.15,0.08,1.72,0.12c0.57,0.04,1.15,0.08,1.72,0.12c0.58,0.04,1.15,0.07,1.73,0.11
	c0.5,0.03,1,0.06,1.5,0.09v0.19c-0.5,0.03-1,0.06-1.5,0.09c-0.58,0.04-1.15,0.07-1.73,0.11c-0.58,0.04-1.15,0.08-1.72,0.12
	c-0.57,0.04-1.15,0.08-1.72,0.12c-0.57,0.04-1.15,0.09-1.72,0.13c-0.57,0.05-1.15,0.09-1.72,0.14c-0.57,0.05-1.15,0.1-1.72,0.15
	c-0.57,0.05-1.15,0.11-1.72,0.16c-0.57,0.06-1.15,0.11-1.72,0.18c-0.57,0.06-1.14,0.12-1.72,0.19c-0.57,0.07-1.14,0.13-1.72,0.21
	c-0.57,0.07-1.14,0.15-1.71,0.22c-0.57,0.08-1.14,0.16-1.71,0.25c-0.57,0.09-1.14,0.18-1.71,0.27c-0.57,0.09-1.14,0.19-1.71,0.3
	c-0.57,0.1-1.14,0.21-1.71,0.33c-0.57,0.12-1.14,0.24-1.71,0.37c-0.57,0.13-1.14,0.27-1.71,0.41c-0.57,0.15-1.14,0.3-1.71,0.46
	c-0.57,0.16-1.14,0.34-1.71,0.52c-0.57,0.19-1.14,0.39-1.71,0.6c-0.58,0.22-1.14,0.45-1.71,0.69c-0.58,0.25-1.15,0.52-1.71,0.81
	c-0.58,0.3-1.15,0.62-1.71,0.96c-0.59,0.36-1.15,0.75-1.71,1.16c-0.59,0.45-1.16,0.92-1.71,1.43c-0.61,0.57-1.17,1.16-1.71,1.8
	c-0.62,0.74-1.19,1.51-1.71,2.33c-0.64,1.01-1.21,2.05-1.71,3.14c-0.67,1.45-1.23,2.94-1.71,4.47c-0.7,2.25-1.27,4.53-1.71,6.85
	c-0.75,3.92-1.32,7.86-1.71,11.83h-0.23c-0.4-3.97-0.97-7.91-1.71-11.83c-0.44-2.32-1.01-4.59-1.71-6.85
	c-0.48-1.53-1.04-3.01-1.71-4.47c-0.5-1.09-1.07-2.13-1.71-3.14c-0.52-0.82-1.08-1.59-1.71-2.33c-0.53-0.64-1.1-1.23-1.71-1.8
	c-0.54-0.51-1.11-0.98-1.71-1.43c-0.55-0.41-1.12-0.8-1.71-1.16c-0.56-0.34-1.13-0.66-1.71-0.96c-0.56-0.29-1.13-0.56-1.71-0.81
	c-0.56-0.25-1.13-0.48-1.71-0.69c-0.56-0.21-1.13-0.41-1.71-0.6c-0.57-0.19-1.14-0.36-1.71-0.52c-0.57-0.16-1.14-0.32-1.71-0.46
	c-0.57-0.14-1.14-0.28-1.71-0.41c-0.57-0.13-1.14-0.25-1.71-0.37c-0.57-0.11-1.14-0.22-1.71-0.33c-0.57-0.1-1.14-0.2-1.71-0.3
	c-0.57-0.09-1.14-0.18-1.71-0.27c-0.57-0.09-1.14-0.17-1.71-0.25c-0.57-0.08-1.14-0.15-1.71-0.22c-0.57-0.07-1.14-0.14-1.72-0.21
	c-0.57-0.07-1.14-0.13-1.72-0.19c-0.57-0.06-1.14-0.12-1.72-0.18c-0.57-0.06-1.15-0.11-1.72-0.16c-0.57-0.05-1.15-0.1-1.72-0.15
	c-0.57-0.05-1.15-0.1-1.72-0.14c-0.57-0.05-1.15-0.09-1.72-0.13c-0.57-0.04-1.15-0.08-1.72-0.12c-0.57-0.04-1.15-0.08-1.73-0.12
	c-0.58-0.04-1.15-0.07-1.73-0.11c-0.5-0.03-1-0.06-1.5-0.09v-0.19c0.5-0.03,1-0.06,1.5-0.09c0.58-0.04,1.15-0.07,1.73-0.11
	c0.58-0.04,1.15-0.08,1.73-0.12c0.57-0.04,1.15-0.08,1.72-0.12c0.57-0.04,1.15-0.09,1.72-0.13c0.57-0.05,1.15-0.09,1.72-0.14
	c0.57-0.05,1.15-0.1,1.72-0.15c0.57-0.05,1.15-0.11,1.72-0.16c0.57-0.06,1.15-0.11,1.72-0.18c0.57-0.06,1.14-0.12,1.72-0.19
	c0.57-0.07,1.14-0.13,1.72-0.21c0.57-0.07,1.14-0.15,1.71-0.22c0.57-0.08,1.14-0.16,1.71-0.25c0.57-0.09,1.14-0.18,1.71-0.27
	c0.57-0.09,1.14-0.19,1.71-0.3c0.57-0.1,1.14-0.21,1.71-0.33c0.57-0.12,1.14-0.24,1.71-0.37c0.57-0.13,1.14-0.27,1.71-0.41
	c0.57-0.15,1.14-0.3,1.71-0.46c0.57-0.16,1.14-0.34,1.71-0.52c0.57-0.19,1.14-0.39,1.71-0.6c0.58-0.22,1.14-0.45,1.71-0.69
	c0.58-0.25,1.15-0.52,1.71-0.81c0.58-0.3,1.15-0.62,1.71-0.96c0.59-0.36,1.15-0.75,1.71-1.16c0.59-0.45,1.16-0.92,1.71-1.43
	c0.61-0.57,1.17-1.16,1.71-1.8c0.62-0.74,1.19-1.51,1.71-2.33c0.64-1.01,1.21-2.05,1.71-3.14c0.67-1.45,1.23-2.94,1.71-4.47
	c0.7-2.25,1.27-4.53,1.71-6.85c0.75-3.92,1.32-7.86,1.71-11.83"/>
<path class="st0" d="M939.85,1949.88c0.23,2.3,0.56,4.59,0.99,6.86c0.26,1.34,0.59,2.66,0.99,3.97c0.28,0.89,0.6,1.75,0.99,2.59
	c0.29,0.63,0.62,1.24,0.99,1.82c0.3,0.47,0.63,0.92,0.99,1.35c0.31,0.37,0.64,0.71,0.99,1.04c0.32,0.29,0.64,0.57,0.99,0.83
	c0.32,0.24,0.65,0.46,0.99,0.67c0.32,0.2,0.65,0.39,0.99,0.56c0.33,0.17,0.65,0.32,0.99,0.47c0.33,0.14,0.66,0.28,0.99,0.4
	c0.33,0.12,0.66,0.24,0.99,0.35c0.33,0.11,0.66,0.21,0.99,0.3c0.33,0.09,0.66,0.18,0.99,0.27c0.33,0.08,0.66,0.16,0.99,0.24
	c0.33,0.07,0.66,0.15,0.99,0.21c0.33,0.07,0.66,0.13,0.99,0.19c0.33,0.06,0.66,0.12,0.99,0.17c0.33,0.05,0.66,0.11,0.99,0.16
	c0.33,0.05,0.66,0.1,0.99,0.14c0.33,0.05,0.66,0.09,0.99,0.13c0.33,0.04,0.66,0.08,1,0.12c0.33,0.04,0.66,0.08,1,0.11
	c0.33,0.04,0.66,0.07,1,0.1c0.33,0.03,0.66,0.06,1,0.09c0.33,0.03,0.67,0.06,1,0.09c0.33,0.03,0.67,0.06,1,0.08
	c0.33,0.03,0.67,0.05,1,0.08c0.33,0.02,0.67,0.05,1,0.07c0.33,0.02,0.67,0.05,1,0.07c0.33,0.02,0.67,0.04,1,0.06
	c0.29,0.02,0.58,0.04,0.87,0.05v0.11c-0.29,0.02-0.58,0.03-0.87,0.05c-0.33,0.02-0.67,0.04-1,0.06c-0.33,0.02-0.67,0.04-1,0.07
	c-0.33,0.02-0.67,0.05-1,0.07c-0.33,0.02-0.67,0.05-1,0.08c-0.33,0.03-0.67,0.05-1,0.08c-0.33,0.03-0.67,0.06-1,0.09
	c-0.33,0.03-0.66,0.06-1,0.09c-0.33,0.03-0.66,0.07-1,0.1c-0.33,0.04-0.66,0.07-1,0.11c-0.33,0.04-0.66,0.08-1,0.12
	c-0.33,0.04-0.66,0.09-0.99,0.13c-0.33,0.05-0.66,0.09-0.99,0.14c-0.33,0.05-0.66,0.1-0.99,0.16c-0.33,0.05-0.66,0.11-0.99,0.17
	c-0.33,0.06-0.66,0.12-0.99,0.19c-0.33,0.07-0.66,0.14-0.99,0.21c-0.33,0.07-0.66,0.15-0.99,0.24c-0.33,0.08-0.66,0.17-0.99,0.27
	c-0.33,0.1-0.66,0.2-0.99,0.3c-0.33,0.11-0.66,0.22-0.99,0.35c-0.33,0.13-0.66,0.26-0.99,0.4c-0.34,0.15-0.67,0.3-0.99,0.47
	c-0.34,0.17-0.67,0.36-0.99,0.56c-0.34,0.21-0.67,0.43-0.99,0.67c-0.35,0.26-0.67,0.53-0.99,0.83c-0.35,0.33-0.68,0.67-0.99,1.04
	c-0.36,0.43-0.69,0.88-0.99,1.35c-0.37,0.59-0.7,1.19-0.99,1.82c-0.39,0.84-0.72,1.7-0.99,2.59c-0.41,1.31-0.73,2.63-0.99,3.97
	c-0.43,2.27-0.76,4.56-0.99,6.86h-0.14c-0.23-2.3-0.56-4.59-0.99-6.86c-0.26-1.34-0.59-2.66-0.99-3.97
	c-0.28-0.89-0.6-1.75-0.99-2.59c-0.29-0.63-0.62-1.24-0.99-1.82c-0.3-0.47-0.63-0.92-0.99-1.35c-0.31-0.37-0.64-0.71-0.99-1.04
	c-0.32-0.29-0.64-0.57-0.99-0.83c-0.32-0.24-0.65-0.46-0.99-0.67c-0.32-0.2-0.65-0.39-0.99-0.56c-0.33-0.17-0.65-0.32-0.99-0.47
	c-0.33-0.14-0.66-0.28-0.99-0.4c-0.33-0.12-0.66-0.24-0.99-0.35c-0.33-0.11-0.66-0.21-0.99-0.3c-0.33-0.09-0.66-0.18-0.99-0.27
	c-0.33-0.08-0.66-0.16-0.99-0.24c-0.33-0.07-0.66-0.15-0.99-0.21c-0.33-0.07-0.66-0.13-0.99-0.19c-0.33-0.06-0.66-0.12-0.99-0.17
	c-0.33-0.05-0.66-0.11-0.99-0.16c-0.33-0.05-0.66-0.1-0.99-0.14c-0.33-0.05-0.66-0.09-0.99-0.13c-0.33-0.04-0.66-0.08-1-0.12
	c-0.33-0.04-0.66-0.08-1-0.11c-0.33-0.04-0.66-0.07-1-0.1c-0.33-0.03-0.66-0.06-1-0.09c-0.33-0.03-0.67-0.06-1-0.09
	c-0.33-0.03-0.67-0.06-1-0.08c-0.33-0.03-0.67-0.05-1-0.08c-0.33-0.02-0.67-0.05-1-0.07c-0.33-0.02-0.67-0.05-1-0.07
	c-0.33-0.02-0.67-0.04-1-0.06c-0.29-0.02-0.58-0.04-0.87-0.05v-0.11c0.29-0.02,0.58-0.03,0.87-0.05c0.33-0.02,0.67-0.04,1-0.06
	c0.33-0.02,0.67-0.04,1-0.07c0.33-0.02,0.67-0.05,1-0.07c0.33-0.02,0.67-0.05,1-0.08c0.33-0.03,0.67-0.05,1-0.08s0.67-0.06,1-0.09
	c0.33-0.03,0.66-0.06,1-0.09s0.66-0.07,1-0.1c0.33-0.04,0.66-0.07,1-0.11c0.33-0.04,0.66-0.08,1-0.12c0.33-0.04,0.66-0.09,0.99-0.13
	c0.33-0.05,0.66-0.09,0.99-0.14c0.33-0.05,0.66-0.1,0.99-0.16c0.33-0.05,0.66-0.11,0.99-0.17c0.33-0.06,0.66-0.12,0.99-0.19
	c0.33-0.07,0.66-0.14,0.99-0.21c0.33-0.07,0.66-0.15,0.99-0.24c0.33-0.08,0.66-0.17,0.99-0.27c0.33-0.1,0.66-0.2,0.99-0.3
	c0.33-0.11,0.66-0.22,0.99-0.35c0.33-0.13,0.66-0.26,0.99-0.4c0.34-0.15,0.66-0.3,0.99-0.47c0.34-0.17,0.67-0.36,0.99-0.56
	c0.34-0.21,0.67-0.43,0.99-0.67c0.35-0.26,0.67-0.53,0.99-0.83c0.35-0.33,0.68-0.67,0.99-1.04c0.36-0.43,0.69-0.88,0.99-1.35
	c0.37-0.59,0.7-1.19,0.99-1.82c0.39-0.84,0.72-1.7,0.99-2.59c0.41-1.31,0.73-2.63,0.99-3.97c0.43-2.27,0.76-4.56,0.99-6.86"/>
</svg>
